<?xml version="1.0" standalone="no"?>
<!DOCTYPE svg PUBLIC "-//W3C//DTD SVG 20010904//EN"
 "http://www.w3.org/TR/2001/REC-SVG-20010904/DTD/svg10.dtd">
<svg version="1.0" xmlns="http://www.w3.org/2000/svg"
 width="828.000000pt" height="828.000000pt" viewBox="0 0 828.000000 828.000000"
 preserveAspectRatio="xMidYMid meet">
<metadata>
Created by potrace 1.11, written by Peter Selinger 2001-2013
</metadata>
<g transform="translate(0.000000,828.000000) scale(0.100000,-0.100000)"
fill="#000000" stroke="none">
<path d="M815 8001 c-64 -30 -116 -75 -181 -156 -35 -43 -220 -296 -264 -362
-8 -11 -62 -87 -120 -168 -91 -128 -105 -144 -113 -127 -15 32 -60 47 -94 30
-58 -27 -54 -50 37 -229 45 -90 91 -179 102 -196 11 -18 16 -33 12 -33 -4 0 0
-8 8 -17 8 -10 39 -65 68 -123 29 -58 91 -179 138 -270 47 -91 126 -246 176
-345 50 -99 93 -182 96 -185 3 -3 41 -75 84 -160 43 -85 82 -160 88 -167 5 -7
10 -18 12 -25 1 -7 11 -29 22 -48 11 -19 42 -76 67 -127 51 -101 207 -405 227
-443 7 -14 17 -32 21 -40 5 -8 19 -37 33 -65 13 -27 45 -81 70 -118 25 -38 46
-72 46 -76 0 -4 9 -16 20 -26 11 -10 20 -22 20 -26 0 -4 17 -34 38 -66 22 -32
50 -78 63 -103 13 -24 30 -50 37 -58 6 -7 12 -19 12 -27 0 -7 3 -15 8 -17 7
-3 111 -181 188 -323 21 -38 55 -101 76 -140 42 -77 269 -535 313 -630 15 -33
36 -77 47 -97 10 -21 16 -38 12 -38 -3 0 -1 -7 6 -15 28 -33 272 -617 380
-910 29 -77 61 -161 71 -187 10 -26 19 -52 19 -58 0 -7 7 -26 15 -43 12 -26
192 -559 200 -592 1 -5 4 -17 7 -25 5 -13 25 -81 34 -115 2 -5 28 -97 59 -204
30 -107 57 -204 60 -215 2 -12 9 -37 15 -56 6 -19 13 -44 15 -55 2 -11 19 -78
38 -150 l33 -130 55 0 c82 -1 89 2 79 36 -5 16 -7 29 -4 29 3 0 0 8 -5 18 -5
9 -12 31 -15 47 -3 17 -15 66 -26 110 -11 44 -23 91 -26 104 -3 14 -7 28 -10
33 -3 4 -7 18 -10 30 -3 13 -7 32 -9 43 -3 11 -19 67 -35 125 -17 58 -33 112
-35 120 -8 36 -87 298 -98 325 -6 17 -12 35 -13 42 -3 17 -120 373 -149 453
-13 36 -44 123 -70 193 -25 71 -62 170 -81 220 -118 304 -138 354 -148 372 -5
11 -11 29 -13 39 -2 11 -7 24 -12 30 -5 6 -19 36 -31 66 -24 62 -42 102 -76
176 -13 28 -24 54 -24 57 0 3 -21 50 -46 104 -25 54 -54 116 -64 138 -173 375
-404 819 -579 1114 -33 56 -61 107 -61 112 0 5 -4 9 -10 9 -5 0 -10 4 -10 9 0
10 -53 98 -128 211 l-43 65 43 35 c46 37 179 169 213 210 94 115 172 230 236
347 15 26 36 64 47 83 11 19 35 64 54 100 52 101 182 277 272 366 117 118 225
192 371 254 97 42 270 57 360 32 l30 -9 -32 -16 c-18 -9 -39 -17 -48 -17 -28
0 -15 -16 50 -58 35 -24 112 -89 171 -145 153 -146 182 -171 223 -193 20 -10
38 -22 41 -25 6 -8 103 -38 150 -46 79 -13 259 -4 355 17 45 10 82 17 123 25
15 3 50 10 77 16 28 5 73 12 100 15 28 3 67 9 89 14 41 9 367 7 401 -2 11 -3
42 -9 69 -12 27 -4 57 -11 68 -17 10 -5 18 -8 18 -5 0 2 24 -5 53 -16 28 -11
66 -24 82 -30 63 -24 197 -106 255 -157 l35 -31 -50 28 c-75 42 -238 108 -288
117 l-28 6 28 -43 c55 -85 158 -189 273 -276 89 -68 156 -112 170 -112 5 0 10
-4 10 -10 0 -5 3 -9 8 -8 4 0 41 -15 83 -35 82 -39 200 -81 264 -93 113 -22
318 -2 410 41 17 7 48 21 70 30 138 59 401 293 505 450 71 107 105 150 170
216 41 42 100 92 131 112 58 37 166 84 209 92 116 20 182 26 175 15 -3 -4 -17
-11 -32 -15 -23 -5 -147 -61 -162 -72 -3 -2 0 -8 7 -15 15 -15 178 -15 262 0
36 7 76 14 90 16 120 21 419 143 588 239 l43 24 -128 125 c-70 69 -148 143
-173 164 -25 22 -52 46 -60 54 -8 9 -60 51 -115 95 -55 44 -102 82 -105 85
-30 31 -298 212 -370 251 -25 13 -47 26 -50 29 -8 9 -183 97 -207 104 -18 6
-44 -6 -113 -48 -49 -31 -93 -56 -96 -56 -3 0 -18 -8 -32 -19 -74 -51 -472
-210 -571 -227 -14 -3 -44 -10 -66 -16 -22 -6 -47 -12 -55 -13 -8 -2 -16 -4
-17 -5 -5 -4 -54 -15 -108 -25 -11 -2 -20 -4 -20 -5 0 -2 -16 -6 -55 -14 -14
-3 -37 -8 -52 -12 -15 -3 -31 -6 -35 -6 -5 0 -18 -4 -31 -9 -13 -5 -35 -11
-50 -14 -15 -3 -36 -7 -47 -10 -18 -4 -64 -15 -135 -31 -22 -5 -19 -9 35 -35
85 -42 199 -80 242 -82 7 0 10 -3 8 -7 -5 -9 -139 1 -195 15 -6 1 -80 17 -96
21 -25 5 -197 77 -246 103 -73 38 -93 50 -166 99 -35 23 -65 42 -67 42 -6 0
-269 183 -283 197 -7 7 -17 13 -22 13 -5 0 -15 6 -22 13 -20 20 -247 167 -258
167 -6 0 -10 4 -10 8 0 5 -19 17 -42 28 -24 10 -45 21 -48 24 -21 25 -262 116
-330 126 -103 15 -133 17 -180 17 -104 -1 -132 -4 -259 -28 -19 -3 -70 -18
-141 -40 -43 -14 -140 -59 -140 -66 0 -5 31 -33 133 -124 96 -85 375 -274 405
-275 6 0 12 -4 12 -9 0 -5 11 -12 24 -15 14 -3 32 -13 41 -22 8 -9 21 -17 28
-18 6 -1 64 -27 127 -58 63 -31 174 -84 245 -118 122 -58 285 -156 285 -172 0
-8 -42 9 -152 61 -37 17 -69 31 -72 31 -2 0 -38 16 -79 35 -41 19 -77 35 -81
35 -3 0 -29 11 -58 24 -73 34 -131 58 -145 61 -31 7 -227 109 -298 155 -355
231 -684 537 -866 805 -83 121 -191 244 -216 245 -7 0 -13 5 -13 10 0 6 -3 9
-7 8 -5 -1 -21 4 -38 11 -16 7 -50 12 -75 12 -41 0 -59 -3 -107 -16 -10 -2
-34 -9 -53 -14 -116 -31 -437 -169 -552 -237 -3 -2 13 -24 35 -47 95 -99 247
-261 317 -338 41 -46 91 -100 110 -120 19 -20 49 -54 67 -76 17 -21 41 -49 53
-63 12 -14 38 -45 58 -69 21 -24 48 -56 62 -72 14 -15 53 -65 86 -111 115
-155 126 -186 23 -60 -59 71 -98 118 -124 146 -6 6 -37 42 -70 81 -33 38 -67
76 -75 85 -8 9 -49 54 -90 100 -95 106 -416 427 -501 501 -147 129 -245 212
-269 227 -14 9 -27 20 -30 23 -7 10 -115 88 -185 134 -68 45 -202 112 -237
119 -13 2 -34 9 -48 14 -14 5 -57 10 -95 10 -55 0 -82 -6 -130 -27z m-344
-1409 c49 -61 109 -143 109 -148 0 -4 8 -14 18 -23 9 -9 40 -50 67 -91 28 -41
53 -77 56 -80 3 -3 12 -16 19 -29 7 -14 17 -30 22 -35 21 -25 108 -167 108
-176 0 -5 5 -10 10 -10 6 0 10 -4 10 -9 0 -5 18 -39 40 -75 22 -37 50 -88 63
-114 12 -26 24 -49 27 -52 7 -6 110 -218 110 -225 0 -3 8 -24 19 -48 25 -56
63 -155 61 -159 0 -2 6 -21 15 -42 9 -22 18 -47 20 -55 5 -24 32 -124 39 -141
3 -8 7 -28 10 -45 3 -16 7 -42 10 -57 12 -57 15 -80 11 -76 -8 7 -240 457
-399 773 -39 76 -74 144 -78 150 -7 10 -74 138 -144 277 -19 38 -35 71 -35 75
0 5 -5 13 -10 19 -5 7 -44 79 -85 160 -42 82 -96 187 -121 234 -41 80 -42 83
-13 50 17 -19 36 -41 41 -48z"/>
<path d="M5445 7122 c-2 -2 -21 -5 -42 -7 -121 -10 -361 -80 -548 -160 -16 -7
-36 -15 -44 -17 -7 -2 24 -30 70 -61 127 -88 219 -146 219 -140 0 3 8 0 18 -8
18 -15 35 -24 147 -84 39 -20 76 -41 83 -47 6 -6 12 -8 12 -5 0 3 27 -8 61
-24 47 -24 68 -29 97 -24 42 7 51 10 72 18 8 3 26 8 40 10 29 6 20 4 230 57
91 23 172 43 180 45 8 2 17 4 20 5 3 1 10 3 15 4 21 4 71 18 95 27 14 4 36 11
50 13 75 16 329 94 310 96 -8 1 -35 4 -60 5 -61 4 -140 13 -169 19 -147 32
-252 72 -371 142 -136 80 -227 118 -316 130 -47 6 -164 10 -169 6z"/>
</g>
</svg>
