<svg xmlns="http://www.w3.org/2000/svg" viewBox="0 0 206.68 194.56"><defs><style>.cls-1{fill:#be3248;}</style></defs><title>Ativo 2</title><g id="Camada_2" data-name="Camada 2"><g id="Layer_1" data-name="Layer 1"><path class="cls-1" d="M176.05,24.86a64.65,64.65,0,0,1-19.41,8.94C146,36.45,138.9,38,138.9,38s5.64,3,8.71,2.86c0,0-6.65,1.51-17.05-4.86S111.27,21.25,101.72,19.5,84,22.45,84,22.45l.65.65a62.3,62.3,0,0,0,13.18,9.61c8.83,4.89,15.7,6.85,19.14,10.43l-1.16-.52C113,41.34,105.44,38,100.2,35.81c-6.56-2.73-16.2-10.37-22.46-17S69.33,4.4,62.94,5.53c-3.59.62-8.44,2.67-12,4.33-2.76,1.3-4.74,2.37-4.74,2.37S66.1,32.61,68.77,38.67c0,0-12-15.28-25-26.68S22.87-3.48,16.93,3.27C14.18,6.4,8.54,14.74,1.76,24.12c0,0,33,34.13,31.45,61.16,0,0,8.42-3.2,16.55-19.09S69.72,46,76.61,48.42a11.39,11.39,0,0,1-2.82,1s2.54,1.12,6.63,5.15,7.09,8.59,21,5.42,24-1.7,32.3,5.57c0,0-.73-.44-1.88-1a34.94,34.94,0,0,0-7.55-3,22,22,0,0,0,3.55,4.67A36.91,36.91,0,0,0,141.42,75c12.93,5,23.35-4.5,29.55-13.72s13.36-9.1,16.56-9.28l-.75.27a25.62,25.62,0,0,0-5.16,2.35,11,11,0,0,0,3.42.44c3.86,0,10.8-1.11,21.64-7.25C206.68,47.85,192.24,31.93,176.05,24.86Z"/><path class="cls-1" d="M137,37.27s13.2-3.15,21.49-5.52c2.11-.6,3.92-1.15,5.1-1.59,0,0-8,.24-14.18-3.27s-10.22-7.72-29.58.52c0,0,1.54,1.15,4,2.74A83.2,83.2,0,0,0,137,37.27Z"/><path class="cls-1" d="M3.32,20.92a1.76,1.76,0,0,0-3.13,1.6L31.65,83.69l.14.22c.46.64,30.07,42.63,46.51,110.65,1.19-.05,2.37-.12,3.55-.2C65.64,126.84,36.5,84.5,34.72,82Z"/></g></g></svg>