<svg id="Camada_1" data-name="Camada 1" xmlns="http://www.w3.org/2000/svg" viewBox="0 0 572.45 135.69"><defs><style>.cls-1{fill:gray}</style></defs><path class="cls-1" d="M66.35 135.69a4 4 0 0 1-4-4V15.58L19.89 58a4 4 0 0 1-5.71-5.7L63.5 3a4 4 0 0 1 6.88 2.86v116.06L111 81.29a4 4 0 0 1 5.7 5.7l-47.5 47.52a4 4 0 0 1-2.85 1.18zM4 135.39a4 4 0 0 1-4-4V4.48a4 4 0 1 1 8.07 0v126.87a4 4 0 0 1-4 4zM254.09 133.37a4 4 0 0 1-4-4V7a4 4 0 1 1 8.07 0v122.34a4 4 0 0 1-4 4z"/><path class="cls-1" d="M290.18 10.09H218A4 4 0 0 1 218 2h72.18a4 4 0 0 1 0 8.07zM171.59 133.93a4 4 0 0 1-2.85-6.89l58.56-58.56h-94a4 4 0 0 1-2.85-6.89l60.4-60.41a4 4 0 0 1 5.71 5.71L143 60.41h94a4 4 0 0 1 2.85 6.89l-65.45 65.45a4 4 0 0 1-2.81 1.18zM313.81 134.94a4 4 0 0 1-4-4V5.83a4 4 0 1 1 8.07 0V130.9a4 4 0 0 1-4 4zM382.16 127.32a4.07 4.07 0 0 1-1.54-.31 4 4 0 0 1-2.49-3.73V16.46L335.7 58.89a4 4 0 0 1-5.7-5.7l49.31-49.32a4 4 0 0 1 6.89 2.85v106.82l40.63-40.63a4 4 0 1 1 5.71 5.71L385 126.14a4 4 0 0 1-2.84 1.18zM448.21 133.82a4 4 0 0 1-4-4V7.4a4 4 0 1 1 8.07 0v122.38a4 4 0 0 1-4 4z"/><path class="cls-1" d="M484.29 9.64h-72.17a4 4 0 1 1 0-8.07h72.17a4 4 0 0 1 0 8.07zM568.45 133.72h-63.21a4 4 0 0 1-4-4V5.38a4 4 0 0 1 4-4h63.21a4 4 0 0 1 4 4v124.33a4 4 0 0 1-4 4zm-59.2-8h55.19V9.39h-55.19z"/></svg>