<svg xmlns="http://www.w3.org/2000/svg" viewBox="0 0 202.54 297.73"><defs><style>.cls-2{fill:#be3248}.cls-3{fill:#fff}</style></defs><g id="Camada_2" data-name="Camada 2"><g id="Layer_1" data-name="Layer 1"><path fill="#3a3383" d="M0 0h202.54v297.73H0z"/><path class="cls-2" d="M157.54 40.93a50 50 0 0 1-15 6.93c-8.21 2-13.73 3.27-13.73 3.27s4.37 2.32 6.74 2.21c0 0-5.14 1.17-13.19-3.76S107.41 38.14 100 36.78a22.19 22.19 0 0 0-13.72 2.29l.5.5A48.57 48.57 0 0 0 97 47c6.84 3.78 12.16 5.3 14.82 8.07l-.9-.4c-2.2-1-8-3.6-12.08-5.27-5.07-2.11-12.53-8-17.38-13.18S75 25.1 70 26a42 42 0 0 0-9.28 3.36c-2.14 1-3.67 1.83-3.67 1.83S72.44 46.93 74.5 51.62A179.52 179.52 0 0 0 55.19 31c-10-8.81-16.21-12-20.8-6.75-2.13 2.42-6.5 8.88-11.75 16.14 0 0 25.57 26.42 24.35 47.34 0 0 6.51-2.47 12.8-14.77s15.46-15.65 20.78-13.79a9.07 9.07 0 0 1-2.17.83 20 20 0 0 1 5.12 4c3.18 3.12 5.49 6.65 16.28 4.2s18.58-1.32 25 4.31c0 0-.57-.34-1.46-.8a27.13 27.13 0 0 0-5.84-2.29 17.23 17.23 0 0 0 2.75 3.58 28.51 28.51 0 0 0 10.49 6.77c10 3.85 18.07-3.48 22.88-10.61s10.34-7 12.81-7.19l-.57.21a19.85 19.85 0 0 0-4 1.82 8.27 8.27 0 0 0 2.65.34c3 0 8.35-.86 16.75-5.61 0 0-11.18-12.33-23.72-17.8z"/><path class="cls-2" d="M127.29 50.54s10.21-2.44 16.64-4.27c1.63-.47 3-.89 3.94-1.23 0 0-6.21.18-11-2.54s-7.91-6-22.9.4c0 0 1.19.89 3.08 2.13a64.42 64.42 0 0 0 10.24 5.51zM48.15 85.14l-24.3-47.26a1.36 1.36 0 1 0-2.42 1.24l24.35 47.35a1 1 0 0 0 .1.17c.55.77 54.71 77.52 42.52 187h-.05V275H91C103.56 165.59 50.29 88.18 48.15 85.14z"/><path class="cls-3" d="M76.86 130.6c-3.26 11.07-13.67 19-26.17 19a27.77 27.77 0 1 1-.08-55.6 27.29 27.29 0 0 1 26.25 19.23H65.51a16.64 16.64 0 0 0-15-9.75c-10.41 0-17.13 8.74-17.13 18.21 0 9.76 7 18.37 17.2 18.37 9.55 0 13.89-7.52 14.9-9.48zM78.84 95.04h10.77v53.5H78.84zM130.79 132.12L130.55 95h11.57v53.49h-10.68l-27.59-37 .24 37H92.52V95h10.76zM22.64 154.46h30.12v10h-18.7v13.56H52.3v10H34.06v23.07H22.64zM57.81 154.46h31.8v10H69.23v12.87h20v10h-20v13.72h20.38v10h-31.8zM103.87 193.54c.38 7.67 5.51 9.12 8 9.12a7.67 7.67 0 0 0 7.74-7.51c0-4.82-4.07-6.05-12-9.2-4.29-1.53-14.18-5-14.18-15.78s9.58-16.78 18.78-16.78c7.51 0 17.47 4 17.93 16.55h-11.26c-.45-2.61-1.45-7-7-7-3.76 0-7 2.61-7 6.44-.07 4.22 3 5.29 12.57 9.27 8.66 3.76 13.49 7.9 13.49 16 0 9.12-5.6 17.62-18.93 17.62-12.88 0-19.54-7.74-19.47-18.7zM143 164.5h-12.32v-10h35.87v10h-12.18v46.67H143zM169.46 154.46h11.42v56.71h-11.42zM22.64 217.17h12l14.46 43.88 14.61-43.88h12L55 275H43.25zM74.33 275H61.68l23.42-57.83h14.1L122.07 275h-12.73l-4.21-11.32H78.47zm17.77-49.22l-10.59 28.56H102zM125.21 217.17h11.63V275h-11.63zM153.7 257c.39 7.81 5.62 9.29 8.12 9.29a7.82 7.82 0 0 0 7.89-7.65c0-4.92-4.14-6.17-12.18-9.37-4.37-1.56-14.45-5.15-14.45-16.08 0-11.09 9.77-17.1 19.13-17.1 7.66 0 17.8 4.06 18.27 16.86H169c-.47-2.65-1.49-7.1-7.19-7.1-3.82 0-7.1 2.65-7.1 6.56-.08 4.29 3 5.39 12.8 9.44 8.82 3.83 13.74 8 13.74 16.24 0 9.3-5.7 18-19.28 18-13.12 0-19.91-7.88-19.83-19.05zM145.06 95h36v9.47h-25.23v12.14h24.87v9.47h-24.87v12.95h25.23v9.46h-36z"/></g></g></svg>